<svg id="Layer_1" data-name="Layer 1" xmlns="http://www.w3.org/2000/svg" viewBox="0 0 1670 418"><defs><style>.cls-1{fill:#fff;}</style></defs><title>resume</title><path class="cls-1" d="M1757.19,772.47a33.81,33.81,0,0,0-13.2,2.4,33.16,33.16,0,0,0-9.75,6.15,27,27,0,0,0-6.3,8.7,28.58,28.58,0,0,0-2.55,10.35h59.4a26.07,26.07,0,0,0-7.5-19.5Q1769.49,772.47,1757.19,772.47Z" transform="translate(-447 -596)"/><path class="cls-1" d="M940.9,772.47a33.81,33.81,0,0,0-13.2,2.4A33.16,33.16,0,0,0,918,781a27,27,0,0,0-6.3,8.7,28.58,28.58,0,0,0-2.55,10.35h59.4a26.07,26.07,0,0,0-7.5-19.5Q953.2,772.47,940.9,772.47Z" transform="translate(-447 -596)"/><path class="cls-1" d="M447,596v418H2117V596ZM836.5,782.67a68.5,68.5,0,0,0-9.45-2.25,61.58,61.58,0,0,0-9.75-.75q-12.9,0-20.4,3.6a27.09,27.09,0,0,0-11.55,10.05,38.16,38.16,0,0,0-5.25,15.45,150.14,150.14,0,0,0-1.2,19.8v60.9h-45V743.67h45v23.4h.6q7.2-13.5,17.1-20.25t24.9-6.75q3.9,0,7.8.3a38.84,38.84,0,0,1,7.2,1.2Zm177,48H909.1q2.7,12.9,11.7,20.55t22.2,7.65q11.1,0,18.75-4.95a50.39,50.39,0,0,0,13.35-12.75l31.5,23.1a71.78,71.78,0,0,1-27.3,21.3,81.83,81.83,0,0,1-34.2,7.5,91.89,91.89,0,0,1-31.65-5.4,76.13,76.13,0,0,1-25.8-15.45,72.41,72.41,0,0,1-17.25-24.15,81.9,81.9,0,0,1,0-63,72.51,72.51,0,0,1,17.25-24.15,76.19,76.19,0,0,1,25.8-15.45,91.88,91.88,0,0,1,31.65-5.4,72,72,0,0,1,28.35,5.4,59.07,59.07,0,0,1,21.6,15.45,70.48,70.48,0,0,1,13.65,24.15,97.45,97.45,0,0,1,4.8,31.5Zm154.95,37.65A47.17,47.17,0,0,1,1152.7,883a67.71,67.71,0,0,1-21.6,7.8,128.41,128.41,0,0,1-23.7,2.25,114.73,114.73,0,0,1-30.9-4.35,57.67,57.67,0,0,1-26.4-15.45l27.3-30.3a45.25,45.25,0,0,0,14,11.85,37.6,37.6,0,0,0,17.85,4,41.72,41.72,0,0,0,14.1-2.25q6.3-2.25,6.3-8.25,0-5.7-5.55-8.55a61,61,0,0,0-14.1-4.8l-18.3-4.2a75.58,75.58,0,0,1-18.3-6.75,38.25,38.25,0,0,1-14.1-12.75q-5.55-8.25-5.55-22.05,0-12.9,5.25-22.2a46.16,46.16,0,0,1,13.8-15.3,59.79,59.79,0,0,1,19.65-8.85,90.16,90.16,0,0,1,22.5-2.85,105.62,105.62,0,0,1,29.1,4.2,54,54,0,0,1,24.9,15l-27.6,27.3q-9.9-12.3-26.1-12.3a24.54,24.54,0,0,0-11.1,2.7q-5.4,2.7-5.4,9.3,0,5.4,5.55,8a73.13,73.13,0,0,0,14.1,4.5l18.3,4.2a68.9,68.9,0,0,1,18.3,7,41,41,0,0,1,14.1,13q5.55,8.26,5.55,22.05Q1174.6,859.17,1168.45,868.32Zm187.65,21.15h-43.2v-19.8h-.6a49.86,49.86,0,0,1-6.15,8.4,40.3,40.3,0,0,1-9.15,7.5,53.09,53.09,0,0,1-12.3,5.4,51.41,51.41,0,0,1-15,2.1q-17.1,0-27.75-5.25a39.67,39.67,0,0,1-16.5-14.55,57,57,0,0,1-7.8-21.9,178.42,178.42,0,0,1-2-27.3v-80.4h45v71.4q0,6.3.45,13a41.15,41.15,0,0,0,2.7,12.45,21.45,21.45,0,0,0,6.9,9.3q4.65,3.6,13.35,3.6t14.1-3.15a21.48,21.48,0,0,0,8.25-8.4,34.34,34.34,0,0,0,3.75-11.85,102.07,102.07,0,0,0,.9-13.8v-72.6h45Zm279,0h-45v-84.9a33.89,33.89,0,0,0-4.35-17.55q-4.35-7.35-15.45-7.35a29.78,29.78,0,0,0-13,2.55,21.5,21.5,0,0,0-8.4,7,29.33,29.33,0,0,0-4.5,10.5,57.3,57.3,0,0,0-1.35,12.6v77.1h-45v-77.1q0-3.9-.3-9.6a38.44,38.44,0,0,0-2.1-10.8,20.67,20.67,0,0,0-5.85-8.7q-4.05-3.6-11.85-3.6-8.7,0-14.1,3.15a21.48,21.48,0,0,0-8.25,8.4,34.31,34.31,0,0,0-3.75,11.85,102.2,102.2,0,0,0-.9,13.8v72.6h-45V743.67h43.2v19.8h.6a36.42,36.42,0,0,1,6-8.4,43.7,43.7,0,0,1,9.3-7.5,53.23,53.23,0,0,1,12.3-5.4,51.4,51.4,0,0,1,15-2.1q15.3,0,27.15,6.3t17.85,19.8q7.8-14.1,18.9-20.1t27.3-6q14.7,0,24.75,4.95a40.5,40.5,0,0,1,15.9,13.5,57,57,0,0,1,8.4,20.1,114.85,114.85,0,0,1,2.55,24.75Zm194.7-58.8h-104.4q2.7,12.9,11.7,20.55t22.2,7.65q11.1,0,18.75-4.95a50.39,50.39,0,0,0,13.35-12.75l31.5,23.1a71.8,71.8,0,0,1-27.3,21.3,81.84,81.84,0,0,1-34.2,7.5,91.89,91.89,0,0,1-31.65-5.4,76.13,76.13,0,0,1-25.8-15.45,72.41,72.41,0,0,1-17.25-24.15,81.9,81.9,0,0,1,0-63,72.51,72.51,0,0,1,17.25-24.15,76.19,76.19,0,0,1,25.8-15.45,91.88,91.88,0,0,1,31.65-5.4,72,72,0,0,1,28.35,5.4,59.08,59.08,0,0,1,21.6,15.45A70.48,70.48,0,0,1,1825,785.07a97.44,97.44,0,0,1,4.8,31.5Z" transform="translate(-447 -596)"/></svg>