<svg id="Layer_1" data-name="Layer 1" xmlns="http://www.w3.org/2000/svg" viewBox="0 0 2350 612.28"><defs><style>.cls-1{fill:#fff;}</style></defs><title>annetonnes</title><path class="cls-1" d="M384.42,215a153.73,153.73,0,0,0-30.29,5.36A221.06,221.06,0,0,0,321.19,232a236.14,236.14,0,0,0-29.8,16.27,211.14,211.14,0,0,0-26.49,20c-33.11,28.94-58.55,66-77.26,105.57a408.78,408.78,0,0,0-23.37,62.44c-6.21,21.76-10.24,44.06-13.4,66.44-1.38,9.69-2.18,19.39-3,29.13q-.67,7.51-1.34,15c-.18,2.13-.51,4.31-.56,6.46q-.31,13.28-.65,26.54c-.14,5.68-.41,11.34-.17,17l1.27,30.37c.25,5.92,1,11.74,1.66,17.62,1.09,9.74,2,19.49,3.48,29.19,3.19,21.34,7.83,42.52,14.92,62.93a215.74,215.74,0,0,0,13.36,30,94.91,94.91,0,0,0,19.49,25.63,83.59,83.59,0,0,0,13.38,10.27,72.29,72.29,0,0,0,16.26,6.85c11.17,3.4,23,3.79,34.55,2.5a106.15,106.15,0,0,0,17.67-4,110.34,110.34,0,0,0,14-5.09,155.46,155.46,0,0,0,16.44-8.81A152.43,152.43,0,0,0,326,784.47c17.21-13.06,32-29.39,44.53-46.88q9.75-13.54,18.08-27.91.16,3.35.36,6.7c.18,3.17.21,6.4.55,9.56l1.53,13.48c1,8.53,2.44,16.95,3.89,25.4a137,137,0,0,0,6.31,22.87A120,120,0,0,0,408,802.61c3,5.73,7.4,10,12.25,14.15a43.58,43.58,0,0,0,27.1,10.12,77.51,77.51,0,0,0,10.29-.35,60.38,60.38,0,0,0,10.42-2.61,83.41,83.41,0,0,0,19-9c14.29-8.75,26.36-21,36.64-34.16,5.89-7.51,11.22-15.43,16.63-23.28a268.53,268.53,0,0,0,16.57-28c5.47-10.46,10.88-20.94,16-31.57q2.36-4.89,4.7-9.79c1.07,10.91,1.6,21.84,1.77,32.84.22,14.43-.51,28.86-.2,43.3a59.38,59.38,0,0,0,.85,7.17c.27,2,1.45,3.66,2.38,5.4,1,1.92,5.37,4,7.39,4.17,3.51.23,6.21.24,9.55-1.15,10.11-4.18,16-15.2,20.35-24.62q5-10.91,9.9-21.86c2.71-6.11,5.44-12.22,8.46-18.19,3.51-6.91,7.17-13.65,11-20.39,1.62-2.84,3.47-5.62,5.34-8.33a101.1,101.1,0,0,1,9-10.68l1-.84a32.35,32.35,0,0,1,2.6,3.69c3.6,8,5.15,16.57,6.54,25.22,1.55,14.19,2.37,28.37,2.69,42.64.16,7.08,0,14.16.25,21.24a76.07,76.07,0,0,0,2.16,15.8,34.38,34.38,0,0,0,5.89,11.58c1.78,2.37,4.44,4.16,6.82,5.9a18.11,18.11,0,0,0,4.27,2,47.24,47.24,0,0,0,6,1.94c2.44.64,6.32.44,8.44.34a33.75,33.75,0,0,0,6.33-1A75.21,75.21,0,0,0,733.7,798a186.4,186.4,0,0,0,19.74-12.17,119.66,119.66,0,0,0,20.18-18.13c7.66-8.35,13.79-18.23,18.86-28.33q3.9-7.79,7.09-15.93c-.57,4.81-1.22,9.61-1.89,14.41-1.74,11.22-3.65,22.41-5.35,33.63l-.14,1,0,.14.13-.89-.14.92a36,36,0,0,0-.68,5.82,12.56,12.56,0,0,0,2.51,7.39c2.5,3.87,8,4.77,12.12,4.24a21.5,21.5,0,0,0,15.69-10.89c3-5.88,5.17-12.13,7.54-18.27l3.93-10.23c2.62-6.82,5.33-13.61,8.05-20.4,4.54-10.61,9-21.31,14.29-31.56,6.19-12,12.32-24.13,19.87-35.37,1.39-1.88,2.82-3.71,4.35-5.45.43.57.83,1.16,1.22,1.78a55.5,55.5,0,0,1,3.4,12.29c1.85,15.91.51,31.92.31,47.89-.1,7.87.56,15.95,2.95,23.47a43.59,43.59,0,0,0,3.77,7.61,24.14,24.14,0,0,0,4.63,5.54,41.43,41.43,0,0,0,7.54,5.86c3,1.81,7,2.64,10.4,3.4l2,.25c2.59.07,5.18.1,7.77.08a54.43,54.43,0,0,0,7.36-1.05A73.52,73.52,0,0,0,948,759.08c10.7-5.2,20.18-12.41,29-20.31,4.17-3.75,8.25-7.54,12.17-11.48l.33.64a45.47,45.47,0,0,0,5.48,8.22c3.27,4,7.75,7.14,11.84,10.2a114.49,114.49,0,0,0,11.48,7.19c10.46,6.06,22.2,7.86,34.12,7.76a63,63,0,0,0,15.09-2.17c5.92-1.5,11.78-3.28,17.55-5.23,11.39-3.85,21.81-9.57,32.08-15.72A176.77,176.77,0,0,0,1141.58,720a244.37,244.37,0,0,0,21.18-20.57,15.44,15.44,0,0,0,3.43,2.76c6.6,3.87,14.06,2.81,20.8,0,7.79-3.22,13.73-10.5,17.43-17.84,4.65-9.2,7.35-19.12,10-29,2-7.56,3.29-15.37,4.75-23.06,1.41-7.39,2.63-14.94,3.49-22.41l.4-3.5q6.13-7.49,13-14.37a60.68,60.68,0,0,1,5.65-4.11c10.14-5.35,20.94-9.15,31.67-13.2,5.49-2.07,11.09-3.86,16.71-5.56l2.07-.52a20.53,20.53,0,0,0,9.44-4,19.65,19.65,0,0,0,7.26-10.17,11.68,11.68,0,0,0-1.51-10.21,12.13,12.13,0,0,0-11.73-4.11,274.1,274.1,0,0,0-27.68,7.53l-11.18,3.72c-4.81,1.59-9.6,3.24-14.31,5.1a115,115,0,0,0-15.78,7.85c.51-11.14,1-22.28,1.26-33.42.91-7.18,1.77-14.36,2.67-21.54.75-6,1.12-12.08,1.64-18.13.63-7.25,1.42-14.51,1.87-21.77,1.89-30.4,4-60.86,3.87-91.33,0-1.9,0-3.79,0-5.69a41.52,41.52,0,0,0-.5-7.05,7,7,0,0,0-1-3.47c-.55-1.17-1.16-2.3-1.8-3.41-1.52-2.68-5.57-3.22-8.23-2.87a15,15,0,0,0-10.65,7.39,36.63,36.63,0,0,0-4.63,13c-.93,5.21-1.67,10.44-2.29,15.7-.59,4.92-.94,9.86-1.34,14.79-.59,7.36-1.11,14.69-1.51,22.07-.79,14.8-1.38,29.6-2,44.4-.5,11.53-1,23.06-1.62,34.58l-.7,6q-2.6,16.93-5.19,33.85c-1.76,11.46-4.36,22.85-7.15,34.1a336,336,0,0,1-10.38,34,174.62,174.62,0,0,0-12.18,23.84c-1.69,4-3.27,8.06-4.65,12.15q-3.69,6.32-7.83,12.4a217.94,217.94,0,0,1-25,28.41,207.38,207.38,0,0,1-30.55,23.18A171.38,171.38,0,0,1,1068.3,728a65.28,65.28,0,0,1-11.89,1.78,66.25,66.25,0,0,1-13.74-2,100.66,100.66,0,0,1-21.75-11.89,37.11,37.11,0,0,1-5.88-7.31,41.7,41.7,0,0,1-2.24-7.57q-.14-1.37-.24-2.73c2.55-3.81,5-7.69,7.43-11.57,2-3.24,3.76-6.66,5.63-10,1.59-2.81,3.14-5.57,4.54-8.47,1.66-3.42,3.51-6.8,5-10.3,2-4.85,4.1-9.71,6.1-14.57,1.54-3.74,2.82-7.65,4-11.51A75.55,75.55,0,0,0,1048.1,617c.6-6-1.22-13.27-6.88-16.54a16,16,0,0,0-7.23-1.82h-4.11c-2.1.57-4.21,1.17-6.32,1.77l-1.92,1a31.86,31.86,0,0,0-5.64,3.5,42.86,42.86,0,0,0-5.62,5.43,63.28,63.28,0,0,0-7.86,11.45,100,100,0,0,0-7,16.1A161,161,0,0,0,990,658.39c-1.38,6.33-2.57,12.59-3.5,19q-.55,3.77-.92,7.58l-1.33,1.94a186.89,186.89,0,0,1-21.17,24.55,172.06,172.06,0,0,1-21.45,17,67.77,67.77,0,0,1-8.56,3.75c-1.35.26-2.7.45-4.05.58-.7-.1-1.4-.21-2.09-.35a24.42,24.42,0,0,1-3.06-1.84,31.64,31.64,0,0,1-3.26-4.35,60.08,60.08,0,0,1-3.09-11.81c-.77-6.49-1.11-13-1.53-19.54-.47-7.22-1.08-14.4-1.85-21.59a96,96,0,0,0-5-23.42,34.5,34.5,0,0,0-7-11.64,32.15,32.15,0,0,0-5.42-4.38c-2.1-1.39-4.89-1.84-7.31-2.37l-4,0a9.79,9.79,0,0,0-4,.42,29.33,29.33,0,0,0-7.42,2.62c-5.33,2.76-9.46,6.45-13.63,10.72-5.3,5.43-9.44,12.1-13.53,18.45-6,9.3-11.5,18.89-16.63,28.68q-.12-4.66-.39-9.33c-.44-7.53-1.48-15-2.59-22.49-.57-3.84-1.25-7.65-2.07-11.44A31.73,31.73,0,0,0,819.84,637c-1.64-2.22-4.9-3.65-7.54-4.11-5.36-.93-9.9,1.66-14.17,4.47-2.49,1.65-5.35,5.35-6.79,7.94-.56,1-1.12,2-1.59,3.09-1.05,2.41-2.12,4.83-3.06,7.28-1.26,3.28-2.39,6.59-3.48,9.92-2.38,7.3-4.57,14.66-6.81,22-3.22,10.53-6.45,21.13-10.51,31.38A166.88,166.88,0,0,1,753,743.22a110.58,110.58,0,0,1-10.51,12,138.11,138.11,0,0,1-17.11,12.55,69.77,69.77,0,0,1-8.83,3.93l-.48.07-.23,0-.47-.26a24.14,24.14,0,0,1-1.62-2.21,53.28,53.28,0,0,1-2.66-9.93c-1.53-12.95-2.35-26-3.94-38.9-1.05-8.47-2.23-16.92-3.66-25.34-.6-3.51-1.37-7-2.11-10.44a83.89,83.89,0,0,0-9.1-23.83c-2.25-4-5.89-7.08-9.59-9.6-2.19-1.5-5.2-2-7.75-2.56a24.92,24.92,0,0,0-8.48.42c-11.6,2.24-20.71,11.35-28,20.05-6.6,7.84-12,16.73-17.16,25.57-5.71,9.81-10.59,20-15.3,30.36q-.17-4.46-.36-8.92c-.66-15.23-1.61-30.36-3.6-45.48A114.56,114.56,0,0,0,599.66,658a25.14,25.14,0,0,0-2-5.15c-1.24-2.54-2.46-4.66-5-6.19a17.16,17.16,0,0,0-5.43-2c-3.23-.67-6.25.54-9.24,1.53s-5.92,3.67-8,5.74a47.12,47.12,0,0,0-6.36,8.19c-4.4,6.86-8.29,14-12.22,21.15-7.26,13.15-14.54,26.28-22,39.35-4.39,7.74-9.18,15.22-13.92,22.75-9.15,12.41-18.3,24.71-29.38,35.51a114.4,114.4,0,0,1-12.7,9.61,72,72,0,0,1-8.19,3.56,45.12,45.12,0,0,1-5.18.75,42.1,42.1,0,0,1-5-.79,38.75,38.75,0,0,1-7.49-4.37,53.56,53.56,0,0,1-7.76-10.45,157.87,157.87,0,0,1-9.28-26c-1.33-5-2.25-10.05-3.33-15.08-1.33-6.19-2.15-12.49-3.05-18.76q-1-11.18-2-22.38c-.28-3.24-.17-6.58-.26-9.83q-.21-7.61-.41-15.22c-.2-7.34.23-14.72.38-22.06.1-5.11.25-10.2.46-15.3q2.48-7.66,4.71-15.4,5.69-19.75,9.44-40l5.1-27.67c.79-4.31,1.25-8.72,1.81-13.07l2.6-19.84c1.24-9.44,1.9-18.95,2.78-28.43.87-9.13,1.38-18.32,1.93-27.49q.44-7.31.76-14.63c.14-3.16.25-6.32.28-9.48a58.05,58.05,0,0,0-.87-9.79,21.67,21.67,0,0,0-.79-3.81c-.55-2.11-2-4.1-3-6-2-3.85-8.05-4.58-11.73-4.11-5.18.66-9.14,3.54-12.74,7.08a24.24,24.24,0,0,0-4.83,6.07,68.47,68.47,0,0,0-3.13,7.5c-.7,2-1.07,4.18-1.57,6.24-.63,2.56-1.21,5.11-1.74,7.69-1.09,5.29-1.91,10.62-2.75,15.95-1.3,8.23-2.55,16.46-3.65,24.71-2,14.67-3.9,29.35-5.51,44.05-3.28,30-6.58,60-8.53,90.11-.21,3.34-.46,6.69-.7,10Q385.56,646,380,659.49a344.49,344.49,0,0,1-32.67,60,239.22,239.22,0,0,1-27.6,32.13,162,162,0,0,1-22.57,17,118.86,118.86,0,0,1-19,8.25,87.64,87.64,0,0,1-16.89,2.41,72.13,72.13,0,0,1-15.07-2.45,66.12,66.12,0,0,1-15.79-9.06c-8.2-7.8-14.51-17-19.83-27-12.76-26.42-19.62-55.15-24.32-84q-1.16-9.47-2.34-18.93c-.64-5.27-1.56-10.56-1.84-15.87q-.68-12.87-1.38-25.75c-.25-4.65-.62-9.3-.55-13.94l.36-26.53c.07-4.5,0-9,.37-13.48q1-13.15,2.07-26.3c.78-9.89,1.88-19.69,3.27-29.51,4.94-31.88,13-63.13,25-93.07a356.08,356.08,0,0,1,34.28-63,279.71,279.71,0,0,1,33.58-38.9,222.24,222.24,0,0,1,33.31-24.82,202.87,202.87,0,0,1,40.1-16.95,157.93,157.93,0,0,1,34.49-5,99.1,99.1,0,0,1,24.72,3.87A80.21,80.21,0,0,1,433.26,261a95.63,95.63,0,0,1,10.5,11.69A92.45,92.45,0,0,1,451.93,286c10.22,21.08,15.69,44.38,19.12,67.47A373.1,373.1,0,0,1,474,408.66c-.2,10-.9,20-1.58,30-.4,5.93-.69,11.85-1.42,17.74q-1.28,10.41-2.56,20.82-1.77,9.28-3.52,18.56c-1.09,5.77-2.75,11.46-4.17,17.16-3.1,12.47-7.27,24.75-11.12,37a10.88,10.88,0,0,0,8.69,14.32c9.26,1.61,18.65-5.66,21.33-14.2,5-15.82,9.89-31.62,14.1-47.66,2-7.65,3.45-15.43,5-23.18,1.66-8.09,2.54-16.37,3.67-24.55.91-6.53,1.6-13,2.16-19.56.87-10.5,1.79-21,2.22-31.47a355.27,355.27,0,0,0-3.4-66.47c-3.15-21.44-8.21-42.7-17-62.57a122.08,122.08,0,0,0-15-25.62,93.4,93.4,0,0,0-23.41-20.78c-8.48-5.42-18.3-8.78-28-11.14a99.21,99.21,0,0,0-23.38-2.46c-4,0-8.08.16-12.08.41Zm646.7,406.74-.45.26.45-.26ZM881.25,656.37a9.28,9.28,0,0,1,1.1.07H881.2l.06-.06Zm-2.39.32h0l-.57.16.56-.17Zm-306.31,9.43.18.16-.18-.16Zm95.05,7.19-.34.09.34-.09Zm-6.11.78a10.92,10.92,0,0,1,1.38,0Zm3.82,1.29.49.43-.49-.43ZM791.94,774.2l0,.16v.06l0-.22Zm-.17,1.14-.07.46.07-.46Zm.54-3.64,0-.21v-.08l0,.29Zm.17-1.17-.13.88q.15-1,.31-2.08c-.06.4-.12.8-.18,1.2Z" transform="translate(-145 -214.63)"/><path class="cls-1" d="M1599.46,392.12c-9.61,3.65-18.67,8.85-27.3,14.37a173.73,173.73,0,0,0-24.93,19.74c-31.93,29.83-52.16,69.54-65.9,110.52-7,21.05-11.93,42.84-15.7,64.69-1.65,9.56-2.68,19.24-3.94,28.85a369.43,369.43,0,0,0-3.16,39.91,247.47,247.47,0,0,0,7,65.7,141.47,141.47,0,0,0,11.38,29.52A110.42,110.42,0,0,0,1494,790.25,124.66,124.66,0,0,0,1507,801.92a97.08,97.08,0,0,0,12.38,8.44c10.14,6,21.67,9.9,33,12.8,11.07,2.82,22.75,3.06,34.11,2.59,12.25-.5,24.3-3.72,35.91-7.49,11.44-3.72,21.81-9.56,32.18-15.57A173.88,173.88,0,0,0,1681.42,783a247.72,247.72,0,0,0,24-24c3-3.44,5.85-7,8.61-10.62,10-3.59,19.42-8.64,28.52-14.06,18.51-11,34.12-25.73,47.91-42.17a212.25,212.25,0,0,0,18.33-25.43c2-3.33,4-6.73,5.79-10.18l-.08.61c-1.09,7.1-2.23,14.18-3.5,21.26s-3,14.3-4.73,21.39-3.71,14-5.82,21c-1.06,3.48-2.17,6.95-3.23,10.42a71.14,71.14,0,0,0-2.35,10.4,20.82,20.82,0,0,0,.44,6.28c.64,4.16,5.71,6.85,9.4,7.49,7.24,1.26,14.68-2.64,19.45-7.84a69.27,69.27,0,0,0,7.82-10.82,192,192,0,0,0,9.09-17.63q5.41-11.34,10.83-22.67a338.49,338.49,0,0,1,21.67-38.4l.78-1.21c1.11-1.53,2.23-3,3.37-4.53-.07,8.91-1.45,17.9-2.53,26.68-.93,7.6-1.9,15.18-2.83,22.76a174.72,174.72,0,0,0-1.41,21.28,105.4,105.4,0,0,0,1.74,16.7,34.76,34.76,0,0,0,6,14.5l1.61,1.46a13.42,13.42,0,0,0,5.73,4.4,28.49,28.49,0,0,0,15,2.52c11.59-.92,22.47-7.4,31.06-14.9a157,157,0,0,0,18.57-19.2c5.38-6.63,10.55-13.35,15.67-20.2,6.08-8.15,11.93-16.49,17.68-24.89q-.72,6.32-1.51,12.63c-1.8,14.33-3.74,28.66-5,43.06-.63,7.05-1,14.8,3,21,1.39,2.12,3.54,3.55,5.55,5.08,3.58,2.74,9.44,2.28,13.51,1.7a27.33,27.33,0,0,0,14.22-6.62,28.66,28.66,0,0,0,7.89-8.95,32.83,32.83,0,0,0,1.89-3c4.71-7.89,8.62-16.27,12.65-24.54q5.41-11.1,11-22.12c1.2-2.37,2.47-4.7,3.74-7,1.86-3.4,3.58-6.95,5.6-10.25l8-13.05c6.3-8.84,12.72-17.5,20.49-25.15,3.33-2.89,6.78-5.73,10.39-8.3a52.88,52.88,0,0,1,1.81,7.1c.87,9.57,0,19.28-.64,28.83-.53,7.43-1.29,14.84-2,22.25-.67,6.78-1.46,13.54-2.06,20.33-.21,2.32-.41,4.62-.51,6.95a61.19,61.19,0,0,0,1.51,15.5,31.74,31.74,0,0,0,3.84,8.39c2,3.2,4.21,4.86,7.24,7.44,4.89,4.17,11.39,6,17.68,6.84a71.14,71.14,0,0,0,12.06,0,45.63,45.63,0,0,0,7.45-1.18,101.35,101.35,0,0,0,18.48-5.88c6-2.57,11.63-6.15,17.22-9.45a121.54,121.54,0,0,0,13.06-9.2,240.24,240.24,0,0,0,25.28-23.4l1.52-1.61a56.73,56.73,0,0,0,7.73,7c8.38,6.48,18.65,10.07,29.07,11.65,6,.92,12.34.64,18.39.33a79.5,79.5,0,0,0,14.07-2.33,126.74,126.74,0,0,0,33.29-13,171.85,171.85,0,0,0,28.29-19.59,269.11,269.11,0,0,0,24.36-24.23c4.86-5.41,9.47-11.08,14-16.75s9.33-11.54,14-17.35A228.82,228.82,0,0,1,2417,617.38c.86-.72,1.74-1.42,2.64-2.09l.14-.06,1.26-.18c.73.11,1.44.27,2.16.45,7.58,3.31,14.07,8.33,20.33,13.67a65.88,65.88,0,0,1,11.69,14.21,50.74,50.74,0,0,1,3,10.57,34.83,34.83,0,0,1,0,4,60.07,60.07,0,0,1-1.75,6,90.58,90.58,0,0,1-6.37,10.95,163.07,163.07,0,0,1-15.46,17.32c-4.76,4.24-9.53,8.44-14.62,12.29q-5.18,3.93-10.41,7.8c-4.05,3-7.93,6.2-12.24,8.81a33.56,33.56,0,0,0-9.23,10.48c-2.84,5.17-4.38,11.52-2.55,17.32,3.76,11.89,19,14.49,29.09,9.42a94.28,94.28,0,0,0,14.85-8.79c1.43-1.08,2.78-2.31,4.17-3.46A154.36,154.36,0,0,0,2446.31,734c5.43-5.68,10.51-11.64,15.56-17.64,5.29-6.28,10.08-12.87,14.81-19.58a129.37,129.37,0,0,0,15.1-28.59c2-5.21,2.7-11.09,3.16-16.62a31.75,31.75,0,0,0-.85-8.84,64.41,64.41,0,0,0-2-6.66,57.13,57.13,0,0,0-6.77-13.38c-3.32-4.77-8.23-8.53-12.59-12.25-4.15-3.53-8.57-6.65-13-9.84-8.08-5.84-17.18-10.86-27-12.95-2.61-.55-5.45-.18-8.1-.13a25.77,25.77,0,0,0-5.51.94,42.21,42.21,0,0,0-8.12,2.7,66.77,66.77,0,0,0-7.8,4.63c-4.33,2.82-8.08,6.66-11.81,10.21-1.89,1.8-3.67,3.72-5.48,5.6-10,10.34-19.17,21.39-28.83,32-6.44,7.08-12.84,14.11-19.7,20.77a178.88,178.88,0,0,1-25.61,19.46,129.34,129.34,0,0,1-21.57,9.28,93.38,93.38,0,0,1-17.78,2.54,65.78,65.78,0,0,1-13.65-2.25,50.54,50.54,0,0,1-11.18-6.32,37,37,0,0,1-5-6.4l-.23-.6c5.32-7.25,10.37-14.62,15.35-22.12a244.51,244.51,0,0,0,20.2-36.25c1.33-3,2.62-6,3.78-9.09a57.13,57.13,0,0,0,3.19-14.8c0-.64-.1-1.28-.15-1.92a11.33,11.33,0,0,0-1-5.06c-.93-2.38-3.27-6.27-5.84-7.23-2.26-.82-4.42-1.85-6.85-1.94a18.17,18.17,0,0,0-9.78,1.38,9,9,0,0,0-3.55,1.45,50.11,50.11,0,0,0-7.69,4.85c-2.26,1.8-4.29,3.91-6.37,5.92-3.62,3.49-6.55,7.86-9.4,12a127.87,127.87,0,0,0-11.93,21.17,234.48,234.48,0,0,0-9.44,24.69c-1.07,3.43-1.92,6.91-2.78,10.4q-.16.63-.3,1.26c-2.37,2.87-4.77,5.71-7.28,8.46-6.24,6.84-12.44,13.6-19.1,20a183.54,183.54,0,0,1-23.86,18.32,96.58,96.58,0,0,1-13.13,5.74c-2,.4-4,.7-6,.9-.66-.08-1.33-.17-2-.28l-.33-.19-.39-.51a33.85,33.85,0,0,1-1.11-4.2c-.61-7.27-.54-14.6-.59-21.9s0-14.79.11-22.19-.07-14.84-.29-22.27a79.81,79.81,0,0,0-5-26.4,41.8,41.8,0,0,0-4.08-7.52c-.44-.54-.88-1.08-1.32-1.61q-2.52-2.34-5.16-4.55a26.27,26.27,0,0,0-7.79-3.3c-3.42-1-7-.78-10.49-.53-5.17.37-10.33,2.8-14.76,5.34a107.91,107.91,0,0,0-10.72,6.82,217.6,217.6,0,0,0-18.4,15.48c-8.78,8.22-15.91,17.92-23.2,27.43-3.17,4.13-5.95,8.64-8.85,13-1.73,2.57-3.41,5.14-5,7.78.32-9.09.62-18.18.5-27.26,0-2.1,0-4.19-.15-6.29-.22-4.43-.59-9.33-2.45-13.39-1.44-3.15-2.94-5.63-6.09-7.45s-7.18-2.13-10.6-1.82a21,21,0,0,0-7.87,2.34,21.83,21.83,0,0,0-6.47,4.08c-1.85,1.61-3.63,3.32-5.34,5.08a97.44,97.44,0,0,0-7.29,9.12c-2.33,3-4.63,6-6.93,9q-14.12,18.49-28.44,36.82A304.58,304.58,0,0,1,1914.49,718q-1,.91-2.11,1.8c-.68-2.5-1.23-5-1.73-7.59-1.3-12.91-1-25.84-.67-38.81.23-10.56.65-21.15-.17-31.69-.39-5-1.22-10.18-3.5-14.72a19.43,19.43,0,0,0-4-5.84,15.82,15.82,0,0,0-8.55-4.94c-5.29-1.19-10.76-.12-15.65,2-6.13,2.64-11.2,7.77-15.67,12.57-7.14,7.69-13,16.62-18.78,25.32-3,4.54-6,9.21-8.68,14q.33-2.62.62-5.25c2.45-21.75,4.25-43.56,7.09-65.27q.61-3.95,1.31-7.89c.38-2.13.82-4.26,1.24-6.39.22-1.11.63-2.21.94-3.28a12.81,12.81,0,0,0-.13-7.17,8.41,8.41,0,0,0-6.79-5.58c-5.3-.92-9.89,2-13.5,5.49s-5.7,7.87-7.9,12.23q-2,4-4.07,8.09-4.1,8.17-8.26,16.33c-8.49,16.74-16.89,33.67-27.43,49.24a226.66,226.66,0,0,1-24.85,28.16q-3.59,3.2-7.32,6.2c3.61-8,6.87-16.16,9.86-24.39,7.4-20.43,11.92-41.72,15.16-63.18a463.49,463.49,0,0,0,5.46-69.37c0-22.24-2.17-44.86-7.53-66.47a142.51,142.51,0,0,0-4.21-14,116.88,116.88,0,0,0-6.92-14.67c-5.1-9.76-13.4-17.86-22.59-23.79-4.7-3-10.42-4.64-15.71-6.26a38.39,38.39,0,0,0-6.35-1.34A108.89,108.89,0,0,0,1659,385a90.54,90.54,0,0,0-16.26-1.44c-14.78,0-29.55,3.35-43.31,8.57Zm45.78,3.38a107.56,107.56,0,0,1,29.32,4.89,116.15,116.15,0,0,1,17.87,8c1.62.9,3.2,1.87,4.74,2.89a81.83,81.83,0,0,0-10.39,1.66,117.12,117.12,0,0,0-19.77,6.26,125,125,0,0,0-13.4,6.88c-5.34,3.06-10.6,6.18-15.68,9.65-9.62,6.61-18.34,14.58-26.61,22.79a186.62,186.62,0,0,0-19.55,23.19,237.67,237.67,0,0,0-18,28.83c-10.07,19.18-17.19,39.89-22.09,60.94a264.13,264.13,0,0,0-5.29,33.21,165.17,165.17,0,0,0,.17,34.48,157.83,157.83,0,0,0,6.73,31.9,141.51,141.51,0,0,0,14.7,30.73,110.58,110.58,0,0,0,17.86,21.67c4.15,4,8.59,7.62,13,11.21a107.5,107.5,0,0,0,13.68,9.66,80.77,80.77,0,0,0,12.91,5.7,130.3,130.3,0,0,0,16.35,4.82,104,104,0,0,0,17.51,2.23,187,187,0,0,1-23.9,17.48,143.79,143.79,0,0,1-24.8,10.52,119.6,119.6,0,0,1-23.81,3.21,112.68,112.68,0,0,1-27.71-4.78,87.81,87.81,0,0,1-52.68-46.25c-7.27-15.29-11.52-31.65-14.11-48.36A288.78,288.78,0,0,1,1491,628.1q.83-10.08,1.67-20.15c.59-7.13,1.45-14.18,2.46-21.26,4.46-28.71,11.36-57.09,22.3-84.07A256.42,256.42,0,0,1,1542,457.37a197,197,0,0,1,23.54-26.88,174.13,174.13,0,0,1,26.78-20,134.44,134.44,0,0,1,26.39-11.25,112.27,112.27,0,0,1,26.52-3.77Zm49.19,48.69a53.42,53.42,0,0,1,9.44,1.71,46.89,46.89,0,0,1,10.18,5.92,61.05,61.05,0,0,1,10.22,13.51c5.42,11.81,8.3,24.44,10.3,37.25,4.42,34.41,2.63,69.45-2.23,103.73-1.94,12.35-4.31,24.61-7.34,36.73A280.64,280.64,0,0,1,1713,679.5a270.78,270.78,0,0,1-22.26,41.42,84.63,84.63,0,0,1-42.6-3.26,88.48,88.48,0,0,1-14.51-7,132.87,132.87,0,0,1-15.81-11.82,120.67,120.67,0,0,1-24.6-31.83,137,137,0,0,1-11.53-37.5,179.13,179.13,0,0,1,.81-44.64,244.75,244.75,0,0,1,13.91-50.71,218.28,218.28,0,0,1,20.11-36.8,195.72,195.72,0,0,1,21.63-24.83,167.78,167.78,0,0,1,23.53-17.67,116.62,116.62,0,0,1,19.24-8.62,78.15,78.15,0,0,1,13.47-2Zm129,139.2-.2,1.37h0q.1-.68.2-1.36Zm274.14,53,.23.1-.25-.09Zm-191.84,87.54h0Z" transform="translate(-145 -214.63)"/></svg>